<svg width="24" height="24" viewBox="0 0 24 24" fill="none" xmlns="http://www.w3.org/2000/svg">
<path d="M15.6698 5.79643H21.6585V7.24933H15.6698V5.79643ZM9.66904 11.545C10.9929 10.9116 11.6863 9.94801 11.6863 8.45908C11.6863 5.51425 9.49493 4.7998 6.96435 4.7998H0V19.581H7.15947C9.84315 19.581 12.3617 18.2902 12.3617 15.2883C12.3617 13.4332 11.4852 12.0613 9.66904 11.545ZM3.24803 7.32138H6.29493C7.46867 7.32138 8.52233 7.64858 8.52233 9.01143C8.52233 10.2662 7.70281 10.7705 6.54109 10.7705H3.24803V7.32138ZM6.7152 17.0715H3.24503V13.0009H6.78424C8.21313 13.0009 9.1167 13.5983 9.1167 15.1112C9.1167 16.6002 8.03902 17.0715 6.7152 17.0715ZM24 14.3848C24 11.2178 22.1478 8.57916 18.7977 8.57916C15.5407 8.57916 13.3253 11.0317 13.3253 14.2467C13.3253 17.5788 15.4236 19.8662 18.7977 19.8662C21.3523 19.8662 23.0064 18.7165 23.8019 16.2639H21.2113C20.9291 17.1795 19.7824 17.6598 18.8908 17.6598C17.1677 17.6598 16.2672 16.6512 16.2672 14.9371H23.979C23.988 14.76 24 14.5739 24 14.3848ZM16.2672 13.082C16.3602 11.6741 17.2998 10.7945 18.7047 10.7945C20.1816 10.7945 20.9201 11.6621 21.0492 13.082H16.2672Z" fill="white"/>
</svg>
