<svg width="439" height="120" viewBox="0 0 439 120" fill="none" xmlns="http://www.w3.org/2000/svg">
<g clip-path="url(#clip0_260_296)">
<path d="M314 45.3054H311C306.582 45.3054 303 48.8871 303 53.3054V76.0857C303 80.504 306.582 84.0857 311 84.0857H314V45.3054Z" fill="#18181B"/>
<rect width="16" height="38.7803" transform="matrix(-1 0 0 1 330 45.3054)" fill="#18181B"/>
<path d="M391 28.5356H340C334.477 28.5356 330 33.0128 330 38.5356V90.8556C330 96.3785 334.477 100.856 340 100.856H391V28.5356Z" fill="#18181B"/>
<path d="M394 25.3914V25.3914C392.343 25.3914 391 26.7345 391 28.3914V101C391 102.657 392.343 104 394 104V104V25.3914Z" fill="#18181B"/>
<path d="M-54.4816 57.1547C-56.9098 62.1151 -54.857 68.1047 -49.8966 70.5329C-44.9362 72.9611 -38.9465 70.9083 -36.5184 65.9479L-54.4816 57.1547ZM293 74.1713H303V54.1713H293V74.1713ZM166 102.428L166.341 92.4336L166 102.428ZM40.5 18.0546L38.2464 27.7974L40.5 18.0546ZM-45.5 61.5513C-36.5184 65.9479 -36.5202 65.9517 -36.522 65.9553C-36.5224 65.9562 -36.5241 65.9596 -36.525 65.9614C-36.5268 65.9651 -36.5282 65.9679 -36.5292 65.9699C-36.5311 65.9738 -36.5314 65.9744 -36.5301 65.9718C-36.5274 65.9664 -36.5182 65.9479 -36.5024 65.9168C-36.4707 65.8545 -36.4128 65.7416 -36.3286 65.582C-36.1601 65.2627 -35.8869 64.7574 -35.5088 64.0964C-34.7513 62.7724 -33.5798 60.8359 -31.9929 58.5248C-28.8017 53.8774 -24.0268 47.8563 -17.6826 42.2607C-5.13561 31.194 13.1735 21.9978 38.2464 27.7974L42.7536 8.31185C9.70002 0.666335 -14.9909 13.2185 -30.9122 27.2614C-38.8023 34.2206 -44.6287 41.5946 -48.4802 47.2036C-50.4146 50.0208 -51.8748 52.4277 -52.8688 54.1652C-53.3664 55.0349 -53.7488 55.7399 -54.0169 56.2481C-54.1511 56.5023 -54.2568 56.7075 -54.3342 56.8599C-54.3729 56.9361 -54.4045 56.999 -54.4291 57.0483C-54.4413 57.073 -54.4519 57.0942 -54.4606 57.1119C-54.465 57.1208 -54.469 57.1288 -54.4725 57.1359C-54.4742 57.1395 -54.4765 57.1442 -54.4774 57.146C-54.4796 57.1504 -54.4816 57.1547 -45.5 61.5513ZM38.2464 27.7974C70.8824 35.3463 85.0429 53.3869 99.4924 71.8971C106.65 81.0662 114.416 91.0959 124.664 98.7355C135.295 106.662 148.265 111.829 165.659 112.422L166.341 92.4336C152.985 91.9783 143.955 88.1711 136.618 82.7011C128.896 76.9444 122.725 69.1562 115.258 59.5903C100.457 40.6304 82.6176 17.5327 42.7536 8.31185L38.2464 27.7974ZM165.659 112.422C191.551 113.305 208.555 101.963 224.59 92.4827C240.522 83.0623 257.158 74.1713 285 74.1713V54.1713C251.842 54.1713 231.478 65.1756 214.41 75.2669C197.445 85.2981 185.449 93.0849 166.341 92.4336L165.659 112.422ZM285 74.1713H293V54.1713H285V74.1713Z" fill="#18181B"/>
<path d="M394 42.1614H439C439.552 42.1614 440 42.6091 440 43.1614V47.4501C440 48.0024 439.552 48.4501 439 48.4501H394V42.1614Z" fill="#18181B" fill-opacity="0.7"/>
<path d="M394 80.9417H439C439.552 80.9417 440 81.3894 440 81.9417V86.2303C440 86.7826 439.552 87.2303 439 87.2303H394V80.9417Z" fill="#18181B" fill-opacity="0.7"/>
</g>
<defs>
<clipPath id="clip0_260_296">
<rect width="439" height="120" fill="white" transform="matrix(-1 0 0 1 439 0)"/>
</clipPath>
</defs>
</svg>
