<svg width="151" height="44" viewBox="0 0 151 44" fill="none" xmlns="http://www.w3.org/2000/svg">
<path d="M2.58239 4.90909L6.22585 15.571H6.37287L10.0163 4.90909H12.1513L7.44034 18H5.15838L0.447443 4.90909H2.58239ZM13.8883 18V8.18182H15.7995V18H13.8883ZM14.8535 6.6669C14.5211 6.6669 14.2356 6.55611 13.997 6.33452C13.7626 6.10866 13.6454 5.8402 13.6454 5.52912C13.6454 5.21378 13.7626 4.94531 13.997 4.72372C14.2356 4.49787 14.5211 4.38494 14.8535 4.38494C15.1859 4.38494 15.4693 4.49787 15.7037 4.72372C15.9423 4.94531 16.0616 5.21378 16.0616 5.52912C16.0616 5.8402 15.9423 6.10866 15.7037 6.33452C15.4693 6.55611 15.1859 6.6669 14.8535 6.6669ZM20.282 12.1705V18H18.3707V8.18182H20.2053V9.77983H20.3267C20.5526 9.25994 20.9063 8.84233 21.3878 8.52699C21.8736 8.21165 22.4851 8.05398 23.2223 8.05398C23.8913 8.05398 24.4773 8.1946 24.9801 8.47585C25.483 8.75284 25.8729 9.16619 26.1499 9.71591C26.4268 10.2656 26.5653 10.9453 26.5653 11.755V18H24.6541V11.9851C24.6541 11.2734 24.4688 10.7173 24.098 10.3168C23.7273 9.91193 23.218 9.70952 22.5703 9.70952C22.1271 9.70952 21.733 9.8054 21.3878 9.99716C21.0469 10.1889 20.7763 10.4702 20.576 10.8409C20.38 11.2074 20.282 11.6506 20.282 12.1705ZM31.0398 12.1705V18H29.1286V8.18182H30.9631V9.77983H31.0845C31.3104 9.25994 31.6641 8.84233 32.1456 8.52699C32.6314 8.21165 33.2429 8.05398 33.9801 8.05398C34.6491 8.05398 35.2351 8.1946 35.7379 8.47585C36.2408 8.75284 36.6307 9.16619 36.9077 9.71591C37.1847 10.2656 37.3232 10.9453 37.3232 11.755V18H35.4119V11.9851C35.4119 11.2734 35.2266 10.7173 34.8558 10.3168C34.4851 9.91193 33.9759 9.70952 33.3281 9.70952C32.8849 9.70952 32.4908 9.8054 32.1456 9.99716C31.8047 10.1889 31.5341 10.4702 31.3338 10.8409C31.1378 11.2074 31.0398 11.6506 31.0398 12.1705ZM40.7429 21.6818C40.4574 21.6818 40.1974 21.6584 39.9631 21.6115C39.7287 21.5689 39.554 21.522 39.4389 21.4709L39.8991 19.9048C40.2486 19.9986 40.5597 20.0391 40.8324 20.0263C41.1051 20.0135 41.3459 19.9112 41.5547 19.7195C41.7678 19.5277 41.9553 19.2145 42.1172 18.7798L42.3537 18.1278L38.7614 8.18182H40.8068L43.2933 15.8011H43.3956L45.8821 8.18182H47.9339L43.8878 19.3104C43.7003 19.8217 43.4616 20.2543 43.1719 20.608C42.8821 20.9659 42.5369 21.2344 42.1364 21.4134C41.7358 21.5923 41.2713 21.6818 40.7429 21.6818ZM54.6472 18V4.90909H59.4412C60.3702 4.90909 61.1394 5.0625 61.7488 5.36932C62.3581 5.67187 62.8141 6.0831 63.1167 6.60298C63.4192 7.11861 63.5705 7.70028 63.5705 8.34801C63.5705 8.89347 63.4703 9.35369 63.2701 9.72869C63.0698 10.0994 62.8013 10.3977 62.4647 10.6236C62.1323 10.8452 61.7658 11.0071 61.3652 11.1094V11.2372C61.7999 11.2585 62.2239 11.3991 62.6373 11.6591C63.0549 11.9148 63.4 12.2791 63.6728 12.7521C63.9455 13.2251 64.0819 13.8004 64.0819 14.478C64.0819 15.147 63.9242 15.7479 63.6088 16.2805C63.2978 16.8089 62.8162 17.2287 62.1642 17.5398C61.5123 17.8466 60.6792 18 59.665 18H54.6472ZM56.6223 16.3061H59.4732C60.4192 16.3061 61.0968 16.1229 61.5059 15.7564C61.915 15.3899 62.1195 14.9318 62.1195 14.3821C62.1195 13.9687 62.0151 13.5895 61.8063 13.2443C61.5975 12.8991 61.2992 12.6243 60.9114 12.4197C60.5279 12.2152 60.0719 12.1129 59.5435 12.1129H56.6223V16.3061ZM56.6223 10.5724H59.2686C59.7118 10.5724 60.1103 10.4872 60.464 10.3168C60.8219 10.1463 61.1053 9.90767 61.3141 9.60085C61.5272 9.28977 61.6337 8.9233 61.6337 8.50142C61.6337 7.96023 61.4441 7.50639 61.0648 7.13991C60.6855 6.77344 60.1039 6.5902 59.3198 6.5902H56.6223V10.5724ZM66.2711 18V8.18182H68.1824V18H66.2711ZM67.2363 6.6669C66.9039 6.6669 66.6184 6.55611 66.3798 6.33452C66.1454 6.10866 66.0282 5.8402 66.0282 5.52912C66.0282 5.21378 66.1454 4.94531 66.3798 4.72372C66.6184 4.49787 66.9039 4.38494 67.2363 4.38494C67.5687 4.38494 67.8521 4.49787 68.0865 4.72372C68.3251 4.94531 68.4444 5.21378 68.4444 5.52912C68.4444 5.8402 68.3251 6.10866 68.0865 6.33452C67.8521 6.55611 67.5687 6.6669 67.2363 6.6669ZM75.3366 8.18182V9.71591H69.9737V8.18182H75.3366ZM71.4119 5.82955H73.3232V15.1172C73.3232 15.4879 73.3786 15.767 73.4893 15.9545C73.6001 16.1378 73.7429 16.2635 73.9176 16.3317C74.0966 16.3956 74.2905 16.4276 74.4993 16.4276C74.6527 16.4276 74.7869 16.4169 74.902 16.3956C75.017 16.3743 75.1065 16.3572 75.1705 16.3445L75.5156 17.9233C75.4048 17.9659 75.2472 18.0085 75.0426 18.0511C74.8381 18.098 74.5824 18.1236 74.2756 18.1278C73.7727 18.1364 73.304 18.0469 72.8693 17.8594C72.4347 17.6719 72.0831 17.3821 71.8146 16.9901C71.5462 16.598 71.4119 16.1058 71.4119 15.5135V5.82955ZM82.0339 8.18182V9.71591H76.671V8.18182H82.0339ZM78.1092 5.82955H80.0204V15.1172C80.0204 15.4879 80.0758 15.767 80.1866 15.9545C80.2974 16.1378 80.4402 16.2635 80.6149 16.3317C80.7939 16.3956 80.9877 16.4276 81.1966 16.4276C81.35 16.4276 81.4842 16.4169 81.5993 16.3956C81.7143 16.3743 81.8038 16.3572 81.8677 16.3445L82.2129 17.9233C82.1021 17.9659 81.9444 18.0085 81.7399 18.0511C81.5353 18.098 81.2797 18.1236 80.9728 18.1278C80.47 18.1364 80.0012 18.0469 79.5666 17.8594C79.1319 17.6719 78.7804 17.3821 78.5119 16.9901C78.2434 16.598 78.1092 16.1058 78.1092 15.5135V5.82955ZM88.2741 18.1982C87.3068 18.1982 86.4737 17.9915 85.7749 17.5781C85.0803 17.1605 84.5433 16.5746 84.1641 15.8203C83.7891 15.0618 83.6016 14.1733 83.6016 13.1548C83.6016 12.1491 83.7891 11.2628 84.1641 10.4957C84.5433 9.72869 85.0717 9.12997 85.7493 8.69957C86.4311 8.26918 87.228 8.05398 88.1399 8.05398C88.6939 8.05398 89.2308 8.1456 89.7507 8.32884C90.2706 8.51207 90.7372 8.79972 91.1506 9.19176C91.5639 9.58381 91.8899 10.093 92.1286 10.7195C92.3672 11.3416 92.4865 12.098 92.4865 12.9886V13.6662H84.6818V12.2344H90.6136C90.6136 11.7315 90.5114 11.2862 90.3068 10.8984C90.1023 10.5064 89.8146 10.1974 89.4439 9.97159C89.0774 9.74574 88.647 9.63281 88.1527 9.63281C87.6158 9.63281 87.147 9.76491 86.7464 10.0291C86.3501 10.2891 86.0433 10.63 85.826 11.0518C85.6129 11.4695 85.5064 11.9233 85.5064 12.4134V13.532C85.5064 14.1882 85.6214 14.7464 85.8516 15.2067C86.0859 15.6669 86.4119 16.0185 86.8295 16.2614C87.2472 16.5 87.7351 16.6193 88.2933 16.6193C88.6555 16.6193 88.9858 16.5682 89.2841 16.4659C89.5824 16.3594 89.8402 16.2017 90.0575 15.9929C90.2749 15.7841 90.4411 15.5263 90.5561 15.2195L92.3651 15.5455C92.2202 16.0781 91.9602 16.5447 91.5852 16.9453C91.2145 17.3416 90.7479 17.6506 90.1854 17.8722C89.6271 18.0895 88.9901 18.1982 88.2741 18.1982ZM96.5183 12.1705V18H94.6071V8.18182H96.4416V9.77983H96.563C96.7889 9.25994 97.1426 8.84233 97.6241 8.52699C98.1099 8.21165 98.7214 8.05398 99.4586 8.05398C100.128 8.05398 100.714 8.1946 101.216 8.47585C101.719 8.75284 102.109 9.16619 102.386 9.71591C102.663 10.2656 102.802 10.9453 102.802 11.755V18H100.89V11.9851C100.89 11.2734 100.705 10.7173 100.334 10.3168C99.9636 9.91193 99.4544 9.70952 98.8066 9.70952C98.3635 9.70952 97.9693 9.8054 97.6241 9.99716C97.2832 10.1889 97.0126 10.4702 96.8123 10.8409C96.6163 11.2074 96.5183 11.6506 96.5183 12.1705ZM109.501 18.1982C108.55 18.1982 107.732 17.983 107.046 17.5526C106.364 17.1179 105.84 16.5192 105.474 15.7564C105.107 14.9936 104.924 14.12 104.924 13.1357C104.924 12.1385 105.111 11.2585 105.486 10.4957C105.861 9.72869 106.39 9.12997 107.072 8.69957C107.753 8.26918 108.557 8.05398 109.481 8.05398C110.227 8.05398 110.892 8.19247 111.476 8.46946C112.059 8.74219 112.53 9.12571 112.888 9.62003C113.251 10.1143 113.466 10.6918 113.534 11.3523H111.674C111.572 10.892 111.337 10.4957 110.971 10.1634C110.608 9.83097 110.123 9.66477 109.513 9.66477C108.981 9.66477 108.514 9.8054 108.113 10.0866C107.717 10.3636 107.408 10.7599 107.187 11.2756C106.965 11.7869 106.854 12.392 106.854 13.0909C106.854 13.8068 106.963 14.4247 107.18 14.9446C107.398 15.4645 107.704 15.8672 108.101 16.1527C108.501 16.4382 108.972 16.581 109.513 16.581C109.876 16.581 110.204 16.5149 110.498 16.3828C110.796 16.2464 111.045 16.0526 111.246 15.8011C111.45 15.5497 111.593 15.2472 111.674 14.8935H113.534C113.466 15.5284 113.259 16.0952 112.914 16.5938C112.569 17.0923 112.106 17.4844 111.527 17.7699C110.952 18.0554 110.276 18.1982 109.501 18.1982ZM119.713 18.1982C118.793 18.1982 117.99 17.9872 117.304 17.5653C116.618 17.1435 116.085 16.5533 115.706 15.7947C115.326 15.0362 115.137 14.1499 115.137 13.1357C115.137 12.1172 115.326 11.2266 115.706 10.4638C116.085 9.70099 116.618 9.10866 117.304 8.68679C117.99 8.26491 118.793 8.05398 119.713 8.05398C120.634 8.05398 121.437 8.26491 122.123 8.68679C122.809 9.10866 123.342 9.70099 123.721 10.4638C124.1 11.2266 124.29 12.1172 124.29 13.1357C124.29 14.1499 124.1 15.0362 123.721 15.7947C123.342 16.5533 122.809 17.1435 122.123 17.5653C121.437 17.9872 120.634 18.1982 119.713 18.1982ZM119.72 16.5938C120.316 16.5938 120.811 16.4361 121.203 16.1207C121.595 15.8054 121.885 15.3857 122.072 14.8615C122.264 14.3374 122.36 13.7599 122.36 13.1293C122.36 12.5028 122.264 11.9276 122.072 11.4034C121.885 10.875 121.595 10.451 121.203 10.1314C120.811 9.81179 120.316 9.65199 119.72 9.65199C119.119 9.65199 118.62 9.81179 118.224 10.1314C117.832 10.451 117.54 10.875 117.348 11.4034C117.161 11.9276 117.067 12.5028 117.067 13.1293C117.067 13.7599 117.161 14.3374 117.348 14.8615C117.54 15.3857 117.832 15.8054 118.224 16.1207C118.62 16.4361 119.119 16.5938 119.72 16.5938ZM132.643 13.9283V8.18182H134.561V18H132.681V16.2997H132.579C132.353 16.8239 131.991 17.2607 131.492 17.6101C130.998 17.9553 130.382 18.1278 129.645 18.1278C129.014 18.1278 128.456 17.9893 127.97 17.7124C127.489 17.4311 127.11 17.0156 126.833 16.4659C126.56 15.9162 126.423 15.2365 126.423 14.4268V8.18182H128.335V14.1967C128.335 14.8658 128.52 15.3984 128.891 15.7947C129.262 16.1911 129.743 16.3892 130.335 16.3892C130.693 16.3892 131.049 16.2997 131.403 16.1207C131.761 15.9418 132.057 15.6712 132.291 15.3089C132.53 14.9467 132.647 14.4865 132.643 13.9283ZM137.129 18V8.18182H138.976V9.74148H139.078C139.257 9.21307 139.572 8.79758 140.024 8.49503C140.48 8.18821 140.996 8.0348 141.571 8.0348C141.69 8.0348 141.831 8.03906 141.993 8.04759C142.159 8.05611 142.289 8.06676 142.383 8.07955V9.90767C142.306 9.88636 142.17 9.86293 141.974 9.83736C141.778 9.80753 141.582 9.79261 141.386 9.79261C140.934 9.79261 140.531 9.88849 140.178 10.0803C139.828 10.2678 139.551 10.5298 139.347 10.8665C139.142 11.1989 139.04 11.5781 139.04 12.0043V18H137.129ZM149.2 8.18182V9.71591H143.837V8.18182H149.2ZM145.275 5.82955H147.186V15.1172C147.186 15.4879 147.242 15.767 147.353 15.9545C147.463 16.1378 147.606 16.2635 147.781 16.3317C147.96 16.3956 148.154 16.4276 148.363 16.4276C148.516 16.4276 148.65 16.4169 148.765 16.3956C148.88 16.3743 148.97 16.3572 149.034 16.3445L149.379 17.9233C149.268 17.9659 149.11 18.0085 148.906 18.0511C148.701 18.098 148.446 18.1236 148.139 18.1278C147.636 18.1364 147.167 18.0469 146.733 17.8594C146.298 17.6719 145.946 17.3821 145.678 16.9901C145.409 16.598 145.275 16.1058 145.275 15.5135V5.82955Z" fill="#1D1D1F"/>
<path opacity="0.7" d="M20.0675 26.9091H21.6528V35.5767C21.6528 36.4716 21.4418 37.2706 21.02 37.9737C20.6023 38.6726 20.0121 39.2244 19.2494 39.6293C18.4866 40.0298 17.5917 40.2301 16.5647 40.2301C15.5377 40.2301 14.6428 40.0298 13.88 39.6293C13.1173 39.2244 12.5249 38.6726 12.1031 37.9737C11.6854 37.2706 11.4766 36.4716 11.4766 35.5767V26.9091H13.0619V35.4489C13.0619 36.0881 13.2025 36.657 13.4837 37.1555C13.765 37.6499 14.1656 38.0398 14.6854 38.3253C15.2096 38.6065 15.836 38.7472 16.5647 38.7472C17.2934 38.7472 17.9198 38.6065 18.444 38.3253C18.9681 38.0398 19.3687 37.6499 19.6457 37.1555C19.9269 36.657 20.0675 36.0881 20.0675 35.4489V26.9091ZM26.9355 26.9091L30.3105 32.3551H30.4127L33.7877 26.9091H35.6542L31.5377 33.4545L35.6542 40H33.7877L30.4127 34.6562H30.3105L26.9355 40H25.069L29.2877 33.4545L25.069 26.9091H26.9355ZM49.5195 40H45.4798V26.9091H49.6985C50.9684 26.9091 52.055 27.1712 52.9584 27.6953C53.8619 28.2152 54.5543 28.9631 55.0359 29.9389C55.5174 30.9105 55.7582 32.0739 55.7582 33.429C55.7582 34.7926 55.5153 35.9666 55.0295 36.951C54.5437 37.9311 53.8363 38.6854 52.9073 39.2138C51.9783 39.7379 50.8491 40 49.5195 40ZM47.065 38.5938H49.4173C50.4996 38.5938 51.3967 38.3849 52.1083 37.9673C52.82 37.5497 53.3505 36.9553 53.6999 36.1839C54.0494 35.4126 54.2241 34.4943 54.2241 33.429C54.2241 32.3722 54.0515 31.4624 53.7063 30.6996C53.3611 29.9325 52.8455 29.3445 52.1594 28.9354C51.4734 28.522 50.619 28.3153 49.5962 28.3153H47.065V38.5938ZM63.6792 40.2045C62.7332 40.2045 61.9171 39.9957 61.231 39.5781C60.5492 39.1562 60.0229 38.5682 59.6522 37.8139C59.2857 37.0554 59.1025 36.1733 59.1025 35.1676C59.1025 34.1619 59.2857 33.2756 59.6522 32.5085C60.0229 31.7372 60.5386 31.1364 61.1991 30.706C61.8638 30.2713 62.6394 30.054 63.5258 30.054C64.0371 30.054 64.5421 30.1392 65.0407 30.3097C65.5393 30.4801 65.9931 30.7571 66.4022 31.1406C66.8113 31.5199 67.1373 32.0227 67.3802 32.6491C67.6231 33.2756 67.7445 34.0469 67.7445 34.9631V35.6023H60.1763V34.2983H66.2104C66.2104 33.7443 66.0996 33.25 65.8781 32.8153C65.6607 32.3807 65.3496 32.0376 64.9448 31.7862C64.5442 31.5348 64.0712 31.4091 63.5258 31.4091C62.9249 31.4091 62.405 31.5582 61.9661 31.8565C61.5315 32.1506 61.1969 32.5341 60.9626 33.0071C60.7282 33.4801 60.611 33.9872 60.611 34.5284V35.3977C60.611 36.1392 60.7388 36.7678 60.9945 37.2834C61.2545 37.7947 61.6146 38.1847 62.0748 38.4531C62.535 38.7173 63.0698 38.8494 63.6792 38.8494C64.0755 38.8494 64.4335 38.794 64.7531 38.6832C65.0769 38.5682 65.356 38.3977 65.5904 38.1719C65.8248 37.9418 66.0059 37.6562 66.1337 37.3153L67.5911 37.7244C67.4377 38.2188 67.1799 38.6534 66.8177 39.0284C66.4555 39.3991 66.008 39.6889 65.4754 39.8977C64.9427 40.1023 64.344 40.2045 63.6792 40.2045ZM79.1189 30.1818L75.4882 40H73.9541L70.3234 30.1818H71.9598L74.67 38.0057H74.7723L77.4825 30.1818H79.1189ZM86.2249 40.2045C85.2789 40.2045 84.4628 39.9957 83.7767 39.5781C83.0949 39.1562 82.5686 38.5682 82.1979 37.8139C81.8314 37.0554 81.6482 36.1733 81.6482 35.1676C81.6482 34.1619 81.8314 33.2756 82.1979 32.5085C82.5686 31.7372 83.0843 31.1364 83.7448 30.706C84.4095 30.2713 85.1851 30.054 86.0715 30.054C86.5828 30.054 87.0878 30.1392 87.5864 30.3097C88.085 30.4801 88.5388 30.7571 88.9479 31.1406C89.357 31.5199 89.683 32.0227 89.9259 32.6491C90.1688 33.2756 90.2902 34.0469 90.2902 34.9631V35.6023H82.722V34.2983H88.7561C88.7561 33.7443 88.6453 33.25 88.4238 32.8153C88.2064 32.3807 87.8953 32.0376 87.4905 31.7862C87.0899 31.5348 86.6169 31.4091 86.0715 31.4091C85.4706 31.4091 84.9507 31.5582 84.5118 31.8565C84.0772 32.1506 83.7426 32.5341 83.5083 33.0071C83.2739 33.4801 83.1567 33.9872 83.1567 34.5284V35.3977C83.1567 36.1392 83.2845 36.7678 83.5402 37.2834C83.8002 37.7947 84.1603 38.1847 84.6205 38.4531C85.0807 38.7173 85.6155 38.8494 86.2249 38.8494C86.6212 38.8494 86.9792 38.794 87.2988 38.6832C87.6226 38.5682 87.9017 38.3977 88.1361 38.1719C88.3705 37.9418 88.5516 37.6562 88.6794 37.3153L90.1368 37.7244C89.9834 38.2188 89.7256 38.6534 89.3634 39.0284C89.0012 39.3991 88.5537 39.6889 88.0211 39.8977C87.4884 40.1023 86.8897 40.2045 86.2249 40.2045ZM95.4435 26.9091V40H93.935V26.9091H95.4435ZM103.545 40.2045C102.659 40.2045 101.881 39.9936 101.212 39.5717C100.547 39.1499 100.027 38.5597 99.6523 37.8011C99.2816 37.0426 99.0962 36.1562 99.0962 35.142C99.0962 34.1193 99.2816 33.2266 99.6523 32.4638C100.027 31.701 100.547 31.1087 101.212 30.6868C101.881 30.2649 102.659 30.054 103.545 30.054C104.431 30.054 105.207 30.2649 105.872 30.6868C106.541 31.1087 107.061 31.701 107.431 32.4638C107.806 33.2266 107.994 34.1193 107.994 35.142C107.994 36.1562 107.806 37.0426 107.431 37.8011C107.061 38.5597 106.541 39.1499 105.872 39.5717C105.207 39.9936 104.431 40.2045 103.545 40.2045ZM103.545 38.8494C104.218 38.8494 104.772 38.6768 105.207 38.3317C105.642 37.9865 105.963 37.5327 106.172 36.9702C106.381 36.4077 106.485 35.7983 106.485 35.142C106.485 34.4858 106.381 33.8743 106.172 33.3075C105.963 32.7408 105.642 32.2827 105.207 31.9332C104.772 31.5838 104.218 31.4091 103.545 31.4091C102.872 31.4091 102.318 31.5838 101.883 31.9332C101.449 32.2827 101.127 32.7408 100.918 33.3075C100.709 33.8743 100.605 34.4858 100.605 35.142C100.605 35.7983 100.709 36.4077 100.918 36.9702C101.127 37.5327 101.449 37.9865 101.883 38.3317C102.318 38.6768 102.872 38.8494 103.545 38.8494ZM111.647 43.6818V30.1818H113.104V31.7415H113.283C113.394 31.571 113.547 31.3537 113.743 31.0895C113.944 30.821 114.229 30.5824 114.6 30.3736C114.975 30.1605 115.482 30.054 116.121 30.054C116.948 30.054 117.677 30.2607 118.307 30.674C118.938 31.0874 119.43 31.6733 119.784 32.4318C120.137 33.1903 120.314 34.0852 120.314 35.1165C120.314 36.1562 120.137 37.0575 119.784 37.8203C119.43 38.5788 118.94 39.1669 118.314 39.5845C117.687 39.9979 116.965 40.2045 116.147 40.2045C115.516 40.2045 115.011 40.1001 114.632 39.8913C114.253 39.6783 113.961 39.4375 113.756 39.169C113.552 38.8963 113.394 38.6705 113.283 38.4915H113.155V43.6818H111.647ZM113.13 35.0909C113.13 35.8324 113.238 36.4865 113.456 37.0533C113.673 37.6158 113.99 38.0568 114.408 38.3764C114.826 38.6918 115.337 38.8494 115.942 38.8494C116.573 38.8494 117.099 38.6832 117.521 38.3509C117.947 38.0142 118.267 37.5625 118.48 36.9957C118.697 36.4247 118.806 35.7898 118.806 35.0909C118.806 34.4006 118.699 33.7784 118.486 33.2244C118.277 32.6662 117.96 32.2251 117.534 31.9013C117.112 31.5732 116.581 31.4091 115.942 31.4091C115.329 31.4091 114.813 31.5646 114.395 31.8757C113.978 32.1825 113.662 32.6129 113.449 33.1669C113.236 33.7166 113.13 34.358 113.13 35.0909ZM128.082 40.2045C127.136 40.2045 126.32 39.9957 125.634 39.5781C124.952 39.1562 124.426 38.5682 124.055 37.8139C123.688 37.0554 123.505 36.1733 123.505 35.1676C123.505 34.1619 123.688 33.2756 124.055 32.5085C124.426 31.7372 124.941 31.1364 125.602 30.706C126.267 30.2713 127.042 30.054 127.929 30.054C128.44 30.054 128.945 30.1392 129.443 30.3097C129.942 30.4801 130.396 30.7571 130.805 31.1406C131.214 31.5199 131.54 32.0227 131.783 32.6491C132.026 33.2756 132.147 34.0469 132.147 34.9631V35.6023H124.579V34.2983H130.613C130.613 33.7443 130.502 33.25 130.281 32.8153C130.063 32.3807 129.752 32.0376 129.348 31.7862C128.947 31.5348 128.474 31.4091 127.929 31.4091C127.328 31.4091 126.808 31.5582 126.369 31.8565C125.934 32.1506 125.6 32.5341 125.365 33.0071C125.131 33.4801 125.014 33.9872 125.014 34.5284V35.3977C125.014 36.1392 125.142 36.7678 125.397 37.2834C125.657 37.7947 126.017 38.1847 126.478 38.4531C126.938 38.7173 127.473 38.8494 128.082 38.8494C128.478 38.8494 128.836 38.794 129.156 38.6832C129.48 38.5682 129.759 38.3977 129.993 38.1719C130.228 37.9418 130.409 37.6562 130.536 37.3153L131.994 37.7244C131.84 38.2188 131.583 38.6534 131.22 39.0284C130.858 39.3991 130.411 39.6889 129.878 39.8977C129.345 40.1023 128.747 40.2045 128.082 40.2045ZM135.792 40V30.1818H137.249V31.6648H137.352C137.531 31.179 137.854 30.7848 138.323 30.4822C138.792 30.1797 139.32 30.0284 139.908 30.0284C140.019 30.0284 140.158 30.0305 140.324 30.0348C140.49 30.0391 140.616 30.0455 140.701 30.054V31.5881C140.65 31.5753 140.533 31.5561 140.35 31.5305C140.171 31.5007 139.981 31.4858 139.781 31.4858C139.303 31.4858 138.877 31.5859 138.502 31.7862C138.131 31.9822 137.837 32.255 137.62 32.6044C137.407 32.9496 137.301 33.3437 137.301 33.7869V40H135.792Z" fill="#6E6E73"/>
</svg>
