<svg width="151" height="44" viewBox="0 0 151 44" fill="none" xmlns="http://www.w3.org/2000/svg">
<path d="M2.58239 4.90909L6.22585 15.571H6.37287L10.0163 4.90909H12.1513L7.44034 18H5.15838L0.447443 4.90909H2.58239ZM13.8883 18V8.18182H15.7995V18H13.8883ZM14.8535 6.6669C14.5211 6.6669 14.2356 6.55611 13.997 6.33452C13.7626 6.10866 13.6454 5.8402 13.6454 5.52912C13.6454 5.21378 13.7626 4.94531 13.997 4.72372C14.2356 4.49787 14.5211 4.38494 14.8535 4.38494C15.1859 4.38494 15.4693 4.49787 15.7037 4.72372C15.9423 4.94531 16.0616 5.21378 16.0616 5.52912C16.0616 5.8402 15.9423 6.10866 15.7037 6.33452C15.4693 6.55611 15.1859 6.6669 14.8535 6.6669ZM20.282 12.1705V18H18.3707V8.18182H20.2053V9.77983H20.3267C20.5526 9.25994 20.9063 8.84233 21.3878 8.52699C21.8736 8.21165 22.4851 8.05398 23.2223 8.05398C23.8913 8.05398 24.4773 8.1946 24.9801 8.47585C25.483 8.75284 25.8729 9.16619 26.1499 9.71591C26.4268 10.2656 26.5653 10.9453 26.5653 11.755V18H24.6541V11.9851C24.6541 11.2734 24.4688 10.7173 24.098 10.3168C23.7273 9.91193 23.218 9.70952 22.5703 9.70952C22.1271 9.70952 21.733 9.8054 21.3878 9.99716C21.0469 10.1889 20.7763 10.4702 20.576 10.8409C20.38 11.2074 20.282 11.6506 20.282 12.1705ZM31.0398 12.1705V18H29.1286V8.18182H30.9631V9.77983H31.0845C31.3104 9.25994 31.6641 8.84233 32.1456 8.52699C32.6314 8.21165 33.2429 8.05398 33.9801 8.05398C34.6491 8.05398 35.2351 8.1946 35.7379 8.47585C36.2408 8.75284 36.6307 9.16619 36.9077 9.71591C37.1847 10.2656 37.3232 10.9453 37.3232 11.755V18H35.4119V11.9851C35.4119 11.2734 35.2266 10.7173 34.8558 10.3168C34.4851 9.91193 33.9759 9.70952 33.3281 9.70952C32.8849 9.70952 32.4908 9.8054 32.1456 9.99716C31.8047 10.1889 31.5341 10.4702 31.3338 10.8409C31.1378 11.2074 31.0398 11.6506 31.0398 12.1705ZM40.7429 21.6818C40.4574 21.6818 40.1974 21.6584 39.9631 21.6115C39.7287 21.5689 39.554 21.522 39.4389 21.4709L39.8991 19.9048C40.2486 19.9986 40.5597 20.0391 40.8324 20.0263C41.1051 20.0135 41.3459 19.9112 41.5547 19.7195C41.7678 19.5277 41.9553 19.2145 42.1172 18.7798L42.3537 18.1278L38.7614 8.18182H40.8068L43.2933 15.8011H43.3956L45.8821 8.18182H47.9339L43.8878 19.3104C43.7003 19.8217 43.4616 20.2543 43.1719 20.608C42.8821 20.9659 42.5369 21.2344 42.1364 21.4134C41.7358 21.5923 41.2713 21.6818 40.7429 21.6818ZM54.6472 18V4.90909H59.4412C60.3702 4.90909 61.1394 5.0625 61.7488 5.36932C62.3581 5.67187 62.8141 6.0831 63.1167 6.60298C63.4192 7.11861 63.5705 7.70028 63.5705 8.34801C63.5705 8.89347 63.4703 9.35369 63.2701 9.72869C63.0698 10.0994 62.8013 10.3977 62.4647 10.6236C62.1323 10.8452 61.7658 11.0071 61.3652 11.1094V11.2372C61.7999 11.2585 62.2239 11.3991 62.6373 11.6591C63.0549 11.9148 63.4 12.2791 63.6728 12.7521C63.9455 13.2251 64.0819 13.8004 64.0819 14.478C64.0819 15.147 63.9242 15.7479 63.6088 16.2805C63.2978 16.8089 62.8162 17.2287 62.1642 17.5398C61.5123 17.8466 60.6792 18 59.665 18H54.6472ZM56.6223 16.3061H59.4732C60.4192 16.3061 61.0968 16.1229 61.5059 15.7564C61.915 15.3899 62.1195 14.9318 62.1195 14.3821C62.1195 13.9687 62.0151 13.5895 61.8063 13.2443C61.5975 12.8991 61.2992 12.6243 60.9114 12.4197C60.5279 12.2152 60.0719 12.1129 59.5435 12.1129H56.6223V16.3061ZM56.6223 10.5724H59.2686C59.7118 10.5724 60.1103 10.4872 60.464 10.3168C60.8219 10.1463 61.1053 9.90767 61.3141 9.60085C61.5272 9.28977 61.6337 8.9233 61.6337 8.50142C61.6337 7.96023 61.4441 7.50639 61.0648 7.13991C60.6855 6.77344 60.1039 6.5902 59.3198 6.5902H56.6223V10.5724ZM66.2711 18V8.18182H68.1824V18H66.2711ZM67.2363 6.6669C66.9039 6.6669 66.6184 6.55611 66.3798 6.33452C66.1454 6.10866 66.0282 5.8402 66.0282 5.52912C66.0282 5.21378 66.1454 4.94531 66.3798 4.72372C66.6184 4.49787 66.9039 4.38494 67.2363 4.38494C67.5687 4.38494 67.8521 4.49787 68.0865 4.72372C68.3251 4.94531 68.4444 5.21378 68.4444 5.52912C68.4444 5.8402 68.3251 6.10866 68.0865 6.33452C67.8521 6.55611 67.5687 6.6669 67.2363 6.6669ZM75.3366 8.18182V9.71591H69.9737V8.18182H75.3366ZM71.4119 5.82955H73.3232V15.1172C73.3232 15.4879 73.3786 15.767 73.4893 15.9545C73.6001 16.1378 73.7429 16.2635 73.9176 16.3317C74.0966 16.3956 74.2905 16.4276 74.4993 16.4276C74.6527 16.4276 74.7869 16.4169 74.902 16.3956C75.017 16.3743 75.1065 16.3572 75.1705 16.3445L75.5156 17.9233C75.4048 17.9659 75.2472 18.0085 75.0426 18.0511C74.8381 18.098 74.5824 18.1236 74.2756 18.1278C73.7727 18.1364 73.304 18.0469 72.8693 17.8594C72.4347 17.6719 72.0831 17.3821 71.8146 16.9901C71.5462 16.598 71.4119 16.1058 71.4119 15.5135V5.82955ZM82.0339 8.18182V9.71591H76.671V8.18182H82.0339ZM78.1092 5.82955H80.0204V15.1172C80.0204 15.4879 80.0758 15.767 80.1866 15.9545C80.2974 16.1378 80.4402 16.2635 80.6149 16.3317C80.7939 16.3956 80.9877 16.4276 81.1966 16.4276C81.35 16.4276 81.4842 16.4169 81.5993 16.3956C81.7143 16.3743 81.8038 16.3572 81.8677 16.3445L82.2129 17.9233C82.1021 17.9659 81.9444 18.0085 81.7399 18.0511C81.5353 18.098 81.2797 18.1236 80.9728 18.1278C80.47 18.1364 80.0012 18.0469 79.5666 17.8594C79.1319 17.6719 78.7804 17.3821 78.5119 16.9901C78.2434 16.598 78.1092 16.1058 78.1092 15.5135V5.82955ZM88.2741 18.1982C87.3068 18.1982 86.4737 17.9915 85.7749 17.5781C85.0803 17.1605 84.5433 16.5746 84.1641 15.8203C83.7891 15.0618 83.6016 14.1733 83.6016 13.1548C83.6016 12.1491 83.7891 11.2628 84.1641 10.4957C84.5433 9.72869 85.0717 9.12997 85.7493 8.69957C86.4311 8.26918 87.228 8.05398 88.1399 8.05398C88.6939 8.05398 89.2308 8.1456 89.7507 8.32884C90.2706 8.51207 90.7372 8.79972 91.1506 9.19176C91.5639 9.58381 91.8899 10.093 92.1286 10.7195C92.3672 11.3416 92.4865 12.098 92.4865 12.9886V13.6662H84.6818V12.2344H90.6136C90.6136 11.7315 90.5114 11.2862 90.3068 10.8984C90.1023 10.5064 89.8146 10.1974 89.4439 9.97159C89.0774 9.74574 88.647 9.63281 88.1527 9.63281C87.6158 9.63281 87.147 9.76491 86.7464 10.0291C86.3501 10.2891 86.0433 10.63 85.826 11.0518C85.6129 11.4695 85.5064 11.9233 85.5064 12.4134V13.532C85.5064 14.1882 85.6214 14.7464 85.8516 15.2067C86.0859 15.6669 86.4119 16.0185 86.8295 16.2614C87.2472 16.5 87.7351 16.6193 88.2933 16.6193C88.6555 16.6193 88.9858 16.5682 89.2841 16.4659C89.5824 16.3594 89.8402 16.2017 90.0575 15.9929C90.2749 15.7841 90.4411 15.5263 90.5561 15.2195L92.3651 15.5455C92.2202 16.0781 91.9602 16.5447 91.5852 16.9453C91.2145 17.3416 90.7479 17.6506 90.1854 17.8722C89.6271 18.0895 88.9901 18.1982 88.2741 18.1982ZM96.5183 12.1705V18H94.6071V8.18182H96.4416V9.77983H96.563C96.7889 9.25994 97.1426 8.84233 97.6241 8.52699C98.1099 8.21165 98.7214 8.05398 99.4586 8.05398C100.128 8.05398 100.714 8.1946 101.216 8.47585C101.719 8.75284 102.109 9.16619 102.386 9.71591C102.663 10.2656 102.802 10.9453 102.802 11.755V18H100.89V11.9851C100.89 11.2734 100.705 10.7173 100.334 10.3168C99.9636 9.91193 99.4544 9.70952 98.8066 9.70952C98.3635 9.70952 97.9693 9.8054 97.6241 9.99716C97.2832 10.1889 97.0126 10.4702 96.8123 10.8409C96.6163 11.2074 96.5183 11.6506 96.5183 12.1705ZM109.501 18.1982C108.55 18.1982 107.732 17.983 107.046 17.5526C106.364 17.1179 105.84 16.5192 105.474 15.7564C105.107 14.9936 104.924 14.12 104.924 13.1357C104.924 12.1385 105.111 11.2585 105.486 10.4957C105.861 9.72869 106.39 9.12997 107.072 8.69957C107.753 8.26918 108.557 8.05398 109.481 8.05398C110.227 8.05398 110.892 8.19247 111.476 8.46946C112.059 8.74219 112.53 9.12571 112.888 9.62003C113.251 10.1143 113.466 10.6918 113.534 11.3523H111.674C111.572 10.892 111.337 10.4957 110.971 10.1634C110.608 9.83097 110.123 9.66477 109.513 9.66477C108.981 9.66477 108.514 9.8054 108.113 10.0866C107.717 10.3636 107.408 10.7599 107.187 11.2756C106.965 11.7869 106.854 12.392 106.854 13.0909C106.854 13.8068 106.963 14.4247 107.18 14.9446C107.398 15.4645 107.704 15.8672 108.101 16.1527C108.501 16.4382 108.972 16.581 109.513 16.581C109.876 16.581 110.204 16.5149 110.498 16.3828C110.796 16.2464 111.045 16.0526 111.246 15.8011C111.45 15.5497 111.593 15.2472 111.674 14.8935H113.534C113.466 15.5284 113.259 16.0952 112.914 16.5938C112.569 17.0923 112.106 17.4844 111.527 17.7699C110.952 18.0554 110.276 18.1982 109.501 18.1982ZM119.713 18.1982C118.793 18.1982 117.99 17.9872 117.304 17.5653C116.618 17.1435 116.085 16.5533 115.706 15.7947C115.326 15.0362 115.137 14.1499 115.137 13.1357C115.137 12.1172 115.326 11.2266 115.706 10.4638C116.085 9.70099 116.618 9.10866 117.304 8.68679C117.99 8.26491 118.793 8.05398 119.713 8.05398C120.634 8.05398 121.437 8.26491 122.123 8.68679C122.809 9.10866 123.342 9.70099 123.721 10.4638C124.1 11.2266 124.29 12.1172 124.29 13.1357C124.29 14.1499 124.1 15.0362 123.721 15.7947C123.342 16.5533 122.809 17.1435 122.123 17.5653C121.437 17.9872 120.634 18.1982 119.713 18.1982ZM119.72 16.5938C120.316 16.5938 120.811 16.4361 121.203 16.1207C121.595 15.8054 121.885 15.3857 122.072 14.8615C122.264 14.3374 122.36 13.7599 122.36 13.1293C122.36 12.5028 122.264 11.9276 122.072 11.4034C121.885 10.875 121.595 10.451 121.203 10.1314C120.811 9.81179 120.316 9.65199 119.72 9.65199C119.119 9.65199 118.62 9.81179 118.224 10.1314C117.832 10.451 117.54 10.875 117.348 11.4034C117.161 11.9276 117.067 12.5028 117.067 13.1293C117.067 13.7599 117.161 14.3374 117.348 14.8615C117.54 15.3857 117.832 15.8054 118.224 16.1207C118.62 16.4361 119.119 16.5938 119.72 16.5938ZM132.643 13.9283V8.18182H134.561V18H132.681V16.2997H132.579C132.353 16.8239 131.991 17.2607 131.492 17.6101C130.998 17.9553 130.382 18.1278 129.645 18.1278C129.014 18.1278 128.456 17.9893 127.97 17.7124C127.489 17.4311 127.11 17.0156 126.833 16.4659C126.56 15.9162 126.423 15.2365 126.423 14.4268V8.18182H128.335V14.1967C128.335 14.8658 128.52 15.3984 128.891 15.7947C129.262 16.1911 129.743 16.3892 130.335 16.3892C130.693 16.3892 131.049 16.2997 131.403 16.1207C131.761 15.9418 132.057 15.6712 132.291 15.3089C132.53 14.9467 132.647 14.4865 132.643 13.9283ZM137.129 18V8.18182H138.976V9.74148H139.078C139.257 9.21307 139.572 8.79758 140.024 8.49503C140.48 8.18821 140.996 8.0348 141.571 8.0348C141.69 8.0348 141.831 8.03906 141.993 8.04759C142.159 8.05611 142.289 8.06676 142.383 8.07955V9.90767C142.306 9.88636 142.17 9.86293 141.974 9.83736C141.778 9.80753 141.582 9.79261 141.386 9.79261C140.934 9.79261 140.531 9.88849 140.178 10.0803C139.828 10.2678 139.551 10.5298 139.347 10.8665C139.142 11.1989 139.04 11.5781 139.04 12.0043V18H137.129ZM149.2 8.18182V9.71591H143.837V8.18182H149.2ZM145.275 5.82955H147.186V15.1172C147.186 15.4879 147.242 15.767 147.353 15.9545C147.463 16.1378 147.606 16.2635 147.781 16.3317C147.96 16.3956 148.154 16.4276 148.363 16.4276C148.516 16.4276 148.65 16.4169 148.765 16.3956C148.88 16.3743 148.97 16.3572 149.034 16.3445L149.379 17.9233C149.268 17.9659 149.11 18.0085 148.906 18.0511C148.701 18.098 148.446 18.1236 148.139 18.1278C147.636 18.1364 147.167 18.0469 146.733 17.8594C146.298 17.6719 145.946 17.3821 145.678 16.9901C145.409 16.598 145.275 16.1058 145.275 15.5135V5.82955Z" fill="white"/>
<path opacity="0.7" d="M10.1761 26.9091H11.7614V35.5767C11.7614 36.4716 11.5504 37.2706 11.1286 37.9737C10.7109 38.6726 10.1207 39.2244 9.35795 39.6293C8.59517 40.0298 7.70028 40.2301 6.6733 40.2301C5.64631 40.2301 4.75142 40.0298 3.98864 39.6293C3.22585 39.2244 2.63352 38.6726 2.21165 37.9737C1.79403 37.2706 1.58523 36.4716 1.58523 35.5767V26.9091H3.17045V35.4489C3.17045 36.0881 3.31108 36.657 3.59233 37.1555C3.87358 37.6499 4.27415 38.0398 4.79403 38.3253C5.31818 38.6065 5.9446 38.7472 6.6733 38.7472C7.40199 38.7472 8.02841 38.6065 8.55256 38.3253C9.07671 38.0398 9.47727 37.6499 9.75426 37.1555C10.0355 36.657 10.1761 36.0881 10.1761 35.4489V26.9091ZM17.0441 26.9091L20.4191 32.3551H20.5213L23.8963 26.9091H25.7628L21.6463 33.4545L25.7628 40H23.8963L20.5213 34.6562H20.4191L17.0441 40H15.1776L19.3963 33.4545L15.1776 26.9091H17.0441ZM39.6281 40H35.5884V26.9091H39.8071C41.077 26.9091 42.1636 27.1712 43.067 27.6953C43.9705 28.2152 44.6629 28.9631 45.1445 29.9389C45.626 30.9105 45.8668 32.0739 45.8668 33.429C45.8668 34.7926 45.6239 35.9666 45.1381 36.951C44.6523 37.9311 43.9449 38.6854 43.0159 39.2138C42.0869 39.7379 40.9577 40 39.6281 40ZM37.1736 38.5938H39.5259C40.6082 38.5938 41.5053 38.3849 42.2169 37.9673C42.9286 37.5497 43.4591 36.9553 43.8085 36.1839C44.158 35.4126 44.3327 34.4943 44.3327 33.429C44.3327 32.3722 44.1601 31.4624 43.8149 30.6996C43.4697 29.9325 42.9541 29.3445 42.268 28.9354C41.582 28.522 40.7276 28.3153 39.7048 28.3153H37.1736V38.5938ZM53.7878 40.2045C52.8418 40.2045 52.0257 39.9957 51.3396 39.5781C50.6578 39.1562 50.1315 38.5682 49.7608 37.8139C49.3943 37.0554 49.2111 36.1733 49.2111 35.1676C49.2111 34.1619 49.3943 33.2756 49.7608 32.5085C50.1315 31.7372 50.6472 31.1364 51.3077 30.706C51.9724 30.2713 52.748 30.054 53.6344 30.054C54.1457 30.054 54.6507 30.1392 55.1493 30.3097C55.6479 30.4801 56.1017 30.7571 56.5108 31.1406C56.9199 31.5199 57.2459 32.0227 57.4888 32.6491C57.7317 33.2756 57.8531 34.0469 57.8531 34.9631V35.6023H50.2849V34.2983H56.319C56.319 33.7443 56.2082 33.25 55.9866 32.8153C55.7693 32.3807 55.4582 32.0376 55.0534 31.7862C54.6528 31.5348 54.1798 31.4091 53.6344 31.4091C53.0335 31.4091 52.5136 31.5582 52.0747 31.8565C51.6401 32.1506 51.3055 32.5341 51.0712 33.0071C50.8368 33.4801 50.7196 33.9872 50.7196 34.5284V35.3977C50.7196 36.1392 50.8474 36.7678 51.1031 37.2834C51.3631 37.7947 51.7232 38.1847 52.1834 38.4531C52.6436 38.7173 53.1784 38.8494 53.7878 38.8494C54.1841 38.8494 54.542 38.794 54.8616 38.6832C55.1855 38.5682 55.4646 38.3977 55.699 38.1719C55.9334 37.9418 56.1145 37.6562 56.2423 37.3153L57.6997 37.7244C57.5463 38.2188 57.2885 38.6534 56.9263 39.0284C56.5641 39.3991 56.1166 39.6889 55.584 39.8977C55.0513 40.1023 54.4526 40.2045 53.7878 40.2045ZM69.2275 30.1818L65.5968 40H64.0627L60.432 30.1818H62.0684L64.7786 38.0057H64.8809L67.5911 30.1818H69.2275ZM76.3335 40.2045C75.3875 40.2045 74.5714 39.9957 73.8853 39.5781C73.2035 39.1562 72.6772 38.5682 72.3065 37.8139C71.94 37.0554 71.7568 36.1733 71.7568 35.1676C71.7568 34.1619 71.94 33.2756 72.3065 32.5085C72.6772 31.7372 73.1929 31.1364 73.8534 30.706C74.5181 30.2713 75.2937 30.054 76.1801 30.054C76.6914 30.054 77.1964 30.1392 77.695 30.3097C78.1936 30.4801 78.6474 30.7571 79.0565 31.1406C79.4656 31.5199 79.7916 32.0227 80.0345 32.6491C80.2774 33.2756 80.3988 34.0469 80.3988 34.9631V35.6023H72.8306V34.2983H78.8647C78.8647 33.7443 78.7539 33.25 78.5323 32.8153C78.315 32.3807 78.0039 32.0376 77.5991 31.7862C77.1985 31.5348 76.7255 31.4091 76.1801 31.4091C75.5792 31.4091 75.0593 31.5582 74.6204 31.8565C74.1858 32.1506 73.8512 32.5341 73.6169 33.0071C73.3825 33.4801 73.2653 33.9872 73.2653 34.5284V35.3977C73.2653 36.1392 73.3931 36.7678 73.6488 37.2834C73.9088 37.7947 74.2689 38.1847 74.7291 38.4531C75.1893 38.7173 75.7241 38.8494 76.3335 38.8494C76.7298 38.8494 77.0877 38.794 77.4073 38.6832C77.7312 38.5682 78.0103 38.3977 78.2447 38.1719C78.4791 37.9418 78.6602 37.6562 78.788 37.3153L80.2454 37.7244C80.092 38.2188 79.8342 38.6534 79.472 39.0284C79.1098 39.3991 78.6623 39.6889 78.1297 39.8977C77.597 40.1023 76.9983 40.2045 76.3335 40.2045ZM85.5521 26.9091V40H84.0436V26.9091H85.5521ZM93.6537 40.2045C92.7673 40.2045 91.9896 39.9936 91.3206 39.5717C90.6558 39.1499 90.1359 38.5597 89.7609 37.8011C89.3902 37.0426 89.2048 36.1562 89.2048 35.142C89.2048 34.1193 89.3902 33.2266 89.7609 32.4638C90.1359 31.701 90.6558 31.1087 91.3206 30.6868C91.9896 30.2649 92.7673 30.054 93.6537 30.054C94.5401 30.054 95.3156 30.2649 95.9804 30.6868C96.6494 31.1087 97.1693 31.701 97.5401 32.4638C97.9151 33.2266 98.1026 34.1193 98.1026 35.142C98.1026 36.1562 97.9151 37.0426 97.5401 37.8011C97.1693 38.5597 96.6494 39.1499 95.9804 39.5717C95.3156 39.9936 94.5401 40.2045 93.6537 40.2045ZM93.6537 38.8494C94.327 38.8494 94.881 38.6768 95.3156 38.3317C95.7503 37.9865 96.072 37.5327 96.2808 36.9702C96.4896 36.4077 96.594 35.7983 96.594 35.142C96.594 34.4858 96.4896 33.8743 96.2808 33.3075C96.072 32.7408 95.7503 32.2827 95.3156 31.9332C94.881 31.5838 94.327 31.4091 93.6537 31.4091C92.9804 31.4091 92.4264 31.5838 91.9918 31.9332C91.5571 32.2827 91.2354 32.7408 91.0266 33.3075C90.8178 33.8743 90.7134 34.4858 90.7134 35.142C90.7134 35.7983 90.8178 36.4077 91.0266 36.9702C91.2354 37.5327 91.5571 37.9865 91.9918 38.3317C92.4264 38.6768 92.9804 38.8494 93.6537 38.8494ZM101.755 43.6818V30.1818H103.213V31.7415H103.392C103.502 31.571 103.656 31.3537 103.852 31.0895C104.052 30.821 104.338 30.5824 104.708 30.3736C105.083 30.1605 105.591 30.054 106.23 30.054C107.056 30.054 107.785 30.2607 108.416 30.674C109.046 31.0874 109.539 31.6733 109.892 32.4318C110.246 33.1903 110.423 34.0852 110.423 35.1165C110.423 36.1562 110.246 37.0575 109.892 37.8203C109.539 38.5788 109.049 39.1669 108.422 39.5845C107.796 39.9979 107.073 40.2045 106.255 40.2045C105.625 40.2045 105.12 40.1001 104.74 39.8913C104.361 39.6783 104.069 39.4375 103.865 39.169C103.66 38.8963 103.502 38.6705 103.392 38.4915H103.264V43.6818H101.755ZM103.238 35.0909C103.238 35.8324 103.347 36.4865 103.564 37.0533C103.782 37.6158 104.099 38.0568 104.517 38.3764C104.934 38.6918 105.446 38.8494 106.051 38.8494C106.681 38.8494 107.208 38.6832 107.63 38.3509C108.056 38.0142 108.375 37.5625 108.588 36.9957C108.806 36.4247 108.914 35.7898 108.914 35.0909C108.914 34.4006 108.808 33.7784 108.595 33.2244C108.386 32.6662 108.069 32.2251 107.642 31.9013C107.22 31.5732 106.69 31.4091 106.051 31.4091C105.437 31.4091 104.921 31.5646 104.504 31.8757C104.086 32.1825 103.771 32.6129 103.558 33.1669C103.345 33.7166 103.238 34.358 103.238 35.0909ZM118.191 40.2045C117.244 40.2045 116.428 39.9957 115.742 39.5781C115.061 39.1562 114.534 38.5682 114.164 37.8139C113.797 37.0554 113.614 36.1733 113.614 35.1676C113.614 34.1619 113.797 33.2756 114.164 32.5085C114.534 31.7372 115.05 31.1364 115.71 30.706C116.375 30.2713 117.151 30.054 118.037 30.054C118.548 30.054 119.053 30.1392 119.552 30.3097C120.051 30.4801 120.504 30.7571 120.914 31.1406C121.323 31.5199 121.649 32.0227 121.892 32.6491C122.134 33.2756 122.256 34.0469 122.256 34.9631V35.6023H114.688V34.2983H120.722C120.722 33.7443 120.611 33.25 120.389 32.8153C120.172 32.3807 119.861 32.0376 119.456 31.7862C119.056 31.5348 118.583 31.4091 118.037 31.4091C117.436 31.4091 116.916 31.5582 116.477 31.8565C116.043 32.1506 115.708 32.5341 115.474 33.0071C115.24 33.4801 115.122 33.9872 115.122 34.5284V35.3977C115.122 36.1392 115.25 36.7678 115.506 37.2834C115.766 37.7947 116.126 38.1847 116.586 38.4531C117.046 38.7173 117.581 38.8494 118.191 38.8494C118.587 38.8494 118.945 38.794 119.264 38.6832C119.588 38.5682 119.867 38.3977 120.102 38.1719C120.336 37.9418 120.517 37.6562 120.645 37.3153L122.102 37.7244C121.949 38.2188 121.691 38.6534 121.329 39.0284C120.967 39.3991 120.519 39.6889 119.987 39.8977C119.454 40.1023 118.855 40.2045 118.191 40.2045ZM125.901 40V30.1818H127.358V31.6648H127.46C127.639 31.179 127.963 30.7848 128.432 30.4822C128.901 30.1797 129.429 30.0284 130.017 30.0284C130.128 30.0284 130.266 30.0305 130.433 30.0348C130.599 30.0391 130.724 30.0455 130.81 30.054V31.5881C130.759 31.5753 130.641 31.5561 130.458 31.5305C130.279 31.5007 130.09 31.4858 129.889 31.4858C129.412 31.4858 128.986 31.5859 128.611 31.7862C128.24 31.9822 127.946 32.255 127.729 32.6044C127.516 32.9496 127.409 33.3437 127.409 33.7869V40H125.901Z" fill="white"/>
</svg>
